<?xml version="1.0" standalone="no"?>
<!DOCTYPE svg PUBLIC "-//W3C//DTD SVG 20010904//EN"
 "http://www.w3.org/TR/2001/REC-SVG-20010904/DTD/svg10.dtd">
<svg version="1.0" xmlns="http://www.w3.org/2000/svg"
 width="16.000000pt" height="16.000000pt" viewBox="0 0 16.000000 16.000000"
 preserveAspectRatio="xMidYMid meet">
<metadata>
Created by potrace 1.11, written by Peter Selinger 2001-2013
</metadata>
<g transform="translate(0.000000,16.000000) scale(0.006154,-0.006154)"
fill="#000000" stroke="none">
<path d="M753 2033 c-29 -10 -7 -33 97 -104 60 -41 108 -78 107 -82 -1 -5
-207 -165 -457 -357 -284 -218 -463 -350 -477 -350 -32 0 -32 -47 0 -59 12 -5
38 -25 56 -45 19 -20 41 -36 47 -36 7 0 75 48 151 106 l138 105 610 2 c535 2
610 4 610 17 0 13 -74 16 -583 20 l-583 5 91 68 90 67 241 0 c224 0 240 1 237
18 -3 15 -23 17 -212 22 l-209 5 141 108 c78 59 147 110 154 112 7 3 180 -104
383 -238 l370 -243 3 -172 2 -172 -350 0 c-343 0 -350 0 -350 -20 0 -20 7 -20
350 -20 l350 0 0 -87 0 -88 -192 0 c-165 0 -193 -2 -193 -15 0 -13 28 -15 193
-15 l192 0 0 -87 0 -88 -175 0 c-168 0 -175 -1 -175 -20 0 -19 7 -20 175 -20
110 0 175 -4 175 -10 0 -7 -258 -10 -755 -10 l-755 0 0 115 0 115 178 2 c149
3 177 5 177 18 0 13 -28 15 -177 18 l-178 2 0 88 0 87 37 0 c27 0 38 4 38 15
0 11 -11 15 -38 15 l-37 0 0 88 0 87 489 0 c421 0 490 2 494 15 4 8 2 17 -2
19 -5 3 -235 6 -512 6 l-504 1 -3 -345 -2 -346 -89 0 c-49 0 -96 -3 -105 -6
-21 -8 -21 -30 0 -38 20 -8 2548 -8 2568 0 21 8 21 30 0 38 -9 3 -189 6 -400
6 l-384 0 0 395 0 396 23 -12 c12 -6 36 -22 54 -35 43 -33 56 -30 87 16 14 22
31 40 37 40 6 0 9 14 7 32 -2 26 -8 33 -25 33 -19 0 -942 622 -942 635 0 3 45
39 99 80 55 41 100 80 100 86 0 31 -35 15 -129 -58 -64 -49 -109 -77 -118 -74
-8 4 -63 39 -121 80 -59 40 -113 71 -119 69z m732 -541 c255 -174 464 -320
464 -323 1 -4 -7 -16 -16 -28 l-18 -22 -444 292 c-244 160 -450 293 -457 296
-7 2 -91 -55 -186 -128 -95 -73 -183 -138 -196 -145 -13 -6 -28 -18 -35 -27
-10 -12 -208 -165 -430 -332 l-38 -28 -30 30 -30 30 463 356 c255 196 469 354
476 351 8 -2 222 -147 477 -322z"/>
<path d="M1372 1023 c3 -16 17 -18 106 -21 97 -3 102 -2 102 18 0 19 -6 20
-106 20 -95 0 -105 -2 -102 -17z"/>
<path d="M502 813 c3 -16 19 -18 193 -18 162 0 190 2 190 15 0 13 -29 15 -193
18 -181 2 -193 1 -190 -15z"/>
<path d="M850 600 c0 -20 4 -20 158 -18 132 3 157 5 157 18 0 13 -25 15 -157
18 -154 2 -158 2 -158 -18z"/>
<path d="M500 390 c0 -20 4 -20 368 -18 318 3 367 5 367 18 0 13 -49 15 -367
18 -364 2 -368 2 -368 -18z"/>
</g>
</svg>
